<?xml version="1.0" standalone="no"?>
<!DOCTYPE svg PUBLIC "-//W3C//DTD SVG 20010904//EN"
 "http://www.w3.org/TR/2001/REC-SVG-20010904/DTD/svg10.dtd">
<svg version="1.0" xmlns="http://www.w3.org/2000/svg"
 width="320.000000pt" height="320.000000pt" viewBox="0 0 320.000000 320.000000"
 preserveAspectRatio="xMidYMid meet">
<metadata>
Created by potrace 1.11, written by Peter Selinger 2001-2013
</metadata>
<g transform="translate(0.000000,320.000000) scale(0.100000,-0.100000)"
fill="#000000" stroke="none">
<path d="M283 2748 c-21 -4 -50 -14 -64 -23 -14 -8 -29 -12 -33 -8 -3 3 -6 1
-6 -5 0 -7 -5 -12 -11 -12 -6 0 -17 -6 -25 -14 -7 -8 -24 -23 -37 -33 -13 -10
-32 -33 -42 -50 -11 -18 -23 -33 -27 -33 -4 0 -7 -3 -7 -7 4 -22 -15 -72 -25
-66 -6 4 -4 -2 4 -12 9 -11 10 -16 2 -11 -10 6 -12 -165 -12 -861 0 -741 3
-875 15 -913 15 -45 39 -93 59 -118 11 -13 18 -20 72 -69 14 -13 32 -23 40
-23 7 0 14 -4 14 -8 0 -5 26 -15 57 -23 48 -11 278 -14 1353 -13 1238 0 1297
1 1350 18 30 11 60 25 65 32 6 7 17 14 24 16 33 7 113 109 127 161 1 4 3 10 4
15 1 4 2 10 1 15 0 4 3 7 9 7 6 0 9 316 10 873 0 927 1 906 -47 992 -22 41
-70 95 -77 88 -3 -4 -6 -1 -6 5 0 14 -80 62 -103 62 -10 0 -17 4 -17 8 0 5 -6
10 -12 11 -38 6 -2623 5 -2655 -1z m2631 -231 c32 -18 44 -33 63 -82 l23 -59
0 -776 0 -776 -23 -59 c-20 -51 -30 -64 -67 -84 l-44 -25 -1270 3 -1271 2 -40
22 c-33 19 -44 32 -62 82 -22 60 -22 63 -22 831 -1 662 1 778 14 815 24 71 37
90 75 109 34 18 84 19 1310 19 l1275 1 39 -23z"/>
<path d="M1577 2224 c-1 -1 -25 -4 -53 -8 -121 -14 -252 -76 -348 -166 -41
-38 -151 -184 -144 -192 1 -2 -4 -19 -12 -38 -19 -51 -19 -51 -30 -105 -21
-100 -12 -221 22 -315 23 -61 108 -209 121 -210 5 0 20 -14 34 -31 45 -53 186
-139 256 -155 9 -2 27 -6 40 -10 60 -15 176 -20 227 -9 72 14 121 28 126 36 3
5 9 7 13 5 17 -11 229 132 231 156 0 4 11 19 25 34 56 60 115 196 130 296 9
56 9 148 2 173 -4 11 -9 35 -12 52 -12 72 -113 271 -138 273 -5 0 -20 14 -34
31 -51 60 -204 148 -284 163 -13 2 -41 7 -61 11 -34 7 -107 12 -111 9z"/>
</g>
</svg>
